<?xml version="1.0" encoding="UTF-8"?>
<svg version="1.1" xmlns="http://www.w3.org/2000/svg" width="512" height="512">
<path d="M0 0 C4.26140126 4.35825129 6.88886034 8.11664968 7.06640625 14.3203125 C6.37680871 27.98688195 -4.92714105 37.04049316 -14.109375 46.078125 C-15.95055372 47.94973642 -17.66806581 49.880918 -19.375 51.875 C-22.11621449 55.06682509 -25.00685888 58.04302977 -28 61 C-31.58375839 64.54051545 -34.94776801 68.16910267 -38.21484375 72 C-40.2596723 74.29092389 -42.42681541 76.41863628 -44.625 78.5625 C-48.25773065 82.13934248 -51.19605397 85.74885602 -54 90 C-53.35933594 90.70125 -52.71867187 91.4025 -52.05859375 92.125 C-47.58039323 97.03700534 -43.12653906 101.96412244 -38.76953125 106.984375 C-36.74885044 109.28607764 -34.68687382 111.54764379 -32.625 113.8125 C-29.57141133 117.18940982 -26.65570795 120.63217132 -23.8125 124.1875 C-20.06760592 128.82434783 -16.09192894 133.17278379 -12 137.5 C-6.36801703 143.45755726 -1.07974506 149.55998848 4 156 C5.04800781 157.23363281 5.04800781 157.23363281 6.1171875 158.4921875 C10.84432253 164.78849599 10.76910798 171.37621711 10 179 C7.7144807 183.92265695 4.28305294 186.81049249 0 190 C-3.89570887 191.29856962 -7.62530392 191.26324136 -11.6875 191.3125 C-12.46544922 191.34150391 -13.24339844 191.37050781 -14.04492188 191.40039062 C-22.08721072 191.48758809 -27.23179196 188.86500832 -33.03515625 183.390625 C-34.38805912 182.02066322 -35.73042193 180.64021921 -37.0625 179.25 C-38.06506836 178.23292969 -38.06506836 178.23292969 -39.08789062 177.1953125 C-43.57027698 172.61273675 -47.80843683 167.8476282 -52 163 C-53.45390807 161.37103946 -54.91157732 159.74541821 -56.375 158.125 C-57.13296875 157.28453125 -57.8909375 156.4440625 -58.671875 155.578125 C-59.44015625 154.72734375 -60.2084375 153.8765625 -61 153 C-69.56860207 143.51127959 -69.56860207 143.51127959 -73.4375 139.0625 C-76.24822525 135.83440488 -79.115799 132.66261557 -82 129.5 C-85.40878264 125.76216444 -88.77571021 121.99584532 -92.09179688 118.17578125 C-94.27845286 115.68250104 -96.49445379 113.21718299 -98.71484375 110.75390625 C-99.51913818 109.86131104 -100.32343262 108.96871582 -101.15209961 108.04907227 C-101.76190674 107.37287842 -102.37171387 106.69668457 -103 106 C-103.00364563 106.83192368 -103.00729126 107.66384735 -103.01104736 108.52098083 C-103.04903879 116.39154956 -103.10601719 124.26170859 -103.18390274 132.13198757 C-103.22327885 136.17744418 -103.25551526 140.22268634 -103.27099609 144.26831055 C-103.28622833 148.17840108 -103.32078828 152.08790167 -103.36830902 155.99772835 C-103.38305562 157.48346874 -103.39103713 158.9692934 -103.39188385 160.45510674 C-103.41204448 178.10622079 -103.41204448 178.10622079 -109.74957275 184.86619568 C-115.61061707 190.32228645 -121.02054545 191.36213137 -128.8125 191.375 C-129.58142578 191.39949219 -130.35035156 191.42398438 -131.14257812 191.44921875 C-138.40378033 191.48598433 -143.61759981 189.32945797 -148.8125 184.25 C-154.54747787 175.72946145 -154.43213174 167.64030993 -154.38818359 157.73071289 C-154.39225372 156.18750132 -154.39759807 154.64429266 -154.40411377 153.10108948 C-154.41774192 148.92746504 -154.41250711 144.75406413 -154.40297651 140.58043599 C-154.39535515 136.20176567 -154.40243251 131.82311386 -154.40713501 127.44444275 C-154.41258594 120.09158918 -154.40541897 112.73882614 -154.39111328 105.38598633 C-154.37479411 96.90058444 -154.38007259 88.41539891 -154.3965925 79.93000227 C-154.41023353 72.62952965 -154.41211407 65.32912194 -154.40427649 58.02864069 C-154.39961356 53.67505916 -154.39893687 49.32157912 -154.40888596 44.96800423 C-154.41759132 40.87291723 -154.411469 36.77810741 -154.39420319 32.68305016 C-154.39025706 31.18553755 -154.39134006 29.68800138 -154.39799118 28.19049835 C-154.46989324 10.34825534 -154.46989324 10.34825534 -149.1328125 3.66015625 C-148.47023438 3.13292969 -147.80765625 2.60570312 -147.125 2.0625 C-146.46757812 1.51722656 -145.81015625 0.97195312 -145.1328125 0.41015625 C-139.89209805 -3.05485825 -135.30588615 -3.36489532 -129.1875 -3.375 C-128.03411133 -3.41173828 -128.03411133 -3.41173828 -126.85742188 -3.44921875 C-120.16489714 -3.48310495 -115.10255464 -1.62339562 -109.9765625 2.7109375 C-109.53054688 3.26007813 -109.08453125 3.80921875 -108.625 4.375 C-108.16351563 4.91898438 -107.70203125 5.46296875 -107.2265625 6.0234375 C-104.36595399 10.6332079 -103.74446708 15.21660921 -103.68115234 20.55615234 C-103.66128265 21.83702728 -103.64141296 23.11790222 -103.62094116 24.43759155 C-103.60906748 25.82037178 -103.59740447 27.20315384 -103.5859375 28.5859375 C-103.56721021 30.01226909 -103.54763565 31.43858979 -103.5272522 32.86489868 C-103.47608959 36.60318556 -103.43637945 40.3415083 -103.39910889 44.07995605 C-103.35896922 47.90104934 -103.30792252 51.72199551 -103.2578125 55.54296875 C-103.16124138 63.02854463 -103.07677703 70.51419214 -103 78 C-100.74118189 75.58687677 -98.48375112 73.17245992 -96.2265625 70.7578125 C-95.58920166 70.0769458 -94.95184082 69.3960791 -94.29516602 68.69458008 C-90.73504317 64.88462405 -87.23676241 61.03918066 -83.8359375 57.0859375 C-81.27508113 54.17636877 -78.63587983 51.34154434 -76 48.5 C-72.7883665 45.03716632 -69.58897047 41.57351485 -66.5 38 C-63.4484492 34.47210956 -60.29454064 31.04648984 -57.125 27.625 C-53.41763189 23.62182817 -49.72033349 19.61115377 -46.0625 15.5625 C-45.33933594 14.76328125 -44.61617188 13.9640625 -43.87109375 13.140625 C-41.84711376 10.88116334 -41.84711376 10.88116334 -39.625 7.8125 C-29.79969053 -2.71461729 -12.96669571 -8.74498083 0 0 Z " fill="#000000" transform="translate(418,162)"/>
<path d="M0 0 C4.03906994 4.32586781 6.22774121 10.09542492 6.3828125 15.96875 C5.76002041 23.67580213 2.95969708 28.43913404 -2.86328125 33.40234375 C-7.028464 36.15226011 -11.8236967 36.06912108 -16.6796875 35.6015625 C-19.85809438 34.84647518 -22.91147404 33.8079558 -25.9921875 32.7265625 C-36.73569813 29.00594324 -46.85768517 27.25083382 -58.2421875 27.2890625 C-59.20576172 27.27294922 -60.16933594 27.25683594 -61.16210938 27.24023438 C-70.11577597 27.23419684 -78.61738149 28.74501606 -85.6796875 34.6015625 C-88.85240374 38.30306478 -89.05202026 41.63389639 -89.17578125 46.3203125 C-88.47619481 49.5373084 -86.87417886 51.17361461 -84.6796875 53.6015625 C-74.73255231 59.88327489 -61.55013722 61.26154542 -50.2421875 63.6015625 C-5.74806261 72.82538303 -5.74806261 72.82538303 6.9375 90.4921875 C15.18160459 103.06794026 16.82920111 117.81941124 14.1015625 132.48046875 C10.3748289 147.36876948 1.98738339 158.99966199 -10.6796875 167.6015625 C-39.78829448 184.87517769 -76.74022536 183.74401932 -108.6796875 175.7265625 C-134.69136195 168.21334362 -134.69136195 168.21334362 -140.2421875 159.0390625 C-142.81226483 152.86850818 -142.80362676 145.54166416 -140.984375 139.1640625 C-138.46137216 133.5668125 -134.65741529 130.24714891 -129.3046875 127.2890625 C-121.20436226 125.16754875 -114.7174683 127.65868277 -107.1171875 130.4140625 C-87.15562843 137.33610628 -63.43851191 143.17314401 -43.00390625 134.8203125 C-39.23357579 132.84326527 -37.75080771 131.38671323 -35.6796875 127.6015625 C-35.01418789 124.43624503 -34.97160177 121.76161451 -35.6796875 118.6015625 C-40.96368896 110.93123781 -51.28770916 108.95859952 -59.91015625 107.19921875 C-61.33948235 106.89255531 -61.33948235 106.89255531 -62.79768372 106.57969666 C-65.81895222 105.93178674 -68.84261773 105.29636915 -71.8671875 104.6640625 C-118.48657676 94.91421686 -118.48657676 94.91421686 -130.9296875 77.2890625 C-139.5809773 63.34826127 -141.61226873 47.30434958 -137.92578125 31.3359375 C-132.87637342 14.85669855 -122.28603749 2.88999726 -107.26953125 -5.24609375 C-77.64829545 -20.25239444 -27.00565277 -22.48377603 0 0 Z " fill="#000000" transform="translate(225.6796875,173.3984375)"/>
</svg>
